<?xml version="1.0" encoding="UTF-8"?>
<svg width="128pt" height="128pt" version="1.1" viewBox="0 0 128 128" xmlns="http://www.w3.org/2000/svg">
 <path d="m48.922 53.012c0.125-1.75 0.33203-3.5078 0.625-5.2617 1.8867-11.242 7.2578-21.668 15.254-29.715 0.007813 0.007813 0.019531 0.019532 0.023438 0.027344 6.1523 6.2656 10.625 13.734 13.207 21.863 0.44531-0.078125 0.88672-0.15234 1.332-0.21875 2.168-0.32422 4.3438-0.52344 6.5078-0.625-2.8555-9.8594-8.1289-18.918-15.52-26.445-0.91797-0.9375-1.9141-1.8828-2.9531-2.8164l-2.5664-2.2969-2.582 2.2812c-10.742 9.4883-17.965 22.512-20.34 36.668-0.78516 4.6758-1.0352 9.3516-0.78516 13.957 2.3828-2.6797 4.9883-5.1602 7.7969-7.418z" fill="#512ad4"/>
 <path d="m47.375 86.711-0.046875-0.09375c-0.39844-0.75391-0.77734-1.5195-1.1445-2.2891-0.019532-0.039063-0.039063-0.078125-0.054688-0.11719-0.36328-0.77344-0.71875-1.5508-1.0508-2.3359-0.011719-0.027344-0.023437-0.058594-0.039063-0.085938-0.34375-0.8125-0.66797-1.6289-0.98047-2.4531v-0.003907c-1.6016-0.64844-3.1836-1.3789-4.7383-2.1914-10.109-5.2656-18.363-13.602-23.547-23.688 0.011718-0.003906 0.023437-0.011719 0.03125-0.015625 7.8047-3.8867 16.34-5.8008 24.867-5.7539 0.066406-0.46094 0.13281-0.92578 0.21094-1.3867 0.18359-1.0938 0.39844-2.1953 0.63672-3.2773l0.67188-3.0508c-10.215-0.29688-20.492 1.8711-29.844 6.5312-1.1719 0.58203-2.3789 1.2344-3.5938 1.9414l-2.9766 1.7305 1.3711 3.1602c5.7031 13.148 15.859 24.043 28.586 30.676 4.1719 2.1758 8.5039 3.8477 12.926 5.0312-0.4375-0.76562-0.86719-1.5469-1.2852-2.3281z" fill="#512ad4"/>
 <path d="m40.43 76.547c5.2266-9.5742 13.238-17.531 23.109-22.633-3.0391-1.4414-6.1836-2.5898-9.4102-3.4414-8.4922 5.6367-15.461 13.254-20.344 22.086 1.918 1.3477 3.9219 2.5781 6.0156 3.668 0.21094 0.11328 0.42188 0.21094 0.62891 0.32031z" fill="#512ad4"/>
 <path d="m75.496 49.414c1.6953-0.41797 3.4141-0.76172 5.1641-1.0234 11.375-1.6953 22.762 0.14453 32.977 5.3203-0.003907 0.011718-0.011719 0.023437-0.019531 0.035156-4.125 7.9219-9.9219 14.418-16.73 19.293 0.21484 0.40625 0.43359 0.8125 0.64062 1.2266 0.96875 1.9453 1.8242 3.9414 2.582 5.9609 8.3281-5.6445 15.414-13.371 20.379-22.902 0.60547-1.1602 1.1992-2.3984 1.7656-3.6797l1.3945-3.1484-2.9648-1.75c-0.95312-0.5625-1.9336-1.1055-2.9102-1.6172-11.812-6.1523-25.039-8.3672-38.246-6.3945-4.6719 0.69531-9.1797 1.8945-13.469 3.5508 1.3086 0.57422 2.5977 1.1875 3.8711 1.8516 1.918 0.99609 3.7734 2.0977 5.5664 3.2773z" fill="#512ad4"/>
 <path d="m91.391 84.957c-0.03125-0.097656-0.0625-0.19141-0.097656-0.28906 0.015625 0.039062 0.027343 0.074219 0.039062 0.10938-0.73438-2.0938-1.5938-4.1406-2.5898-6.1406-0.10156-0.20312-0.21094-0.40234-0.31641-0.60156-10.102 4.8125-21.23 6.4023-32.027 4.7227 0.015624 0.03125 0.03125 0.058594 0.046874 0.089844 0.375 0.67969 0.76172 1.3516 1.1641 2.0195 0.03125 0.050781 0.0625 0.10156 0.09375 0.15625 0.41406 0.67187 0.83594 1.3398 1.2773 1.9961 0.003906 0.003907 0.003906 0.007813 0.007812 0.011719 0.42578 0.63672 0.86719 1.2539 1.3203 1.8711 0.074218 0.10156 0.14453 0.19922 0.22266 0.29688 0.4375 0.58984 0.89062 1.168 1.3555 1.7383 0.039062 0.050781 0.082031 0.10156 0.12109 0.14844 10.031 0.44922 20.121-1.5391 29.453-5.9258-0.027344-0.066406-0.046876-0.13672-0.070313-0.20312z" fill="#512ad4"/>
 <path d="m84.422 78.613c3.5039-9.3867 4.7266-19.574 3.4375-29.781-2.3438 0.042969-4.6953 0.23047-7.0508 0.58203-0.22266 0.035157-0.44531 0.078126-0.67188 0.11328 1.4531 11.07-0.46875 22.125-5.375 31.863 3.3008-0.63281 6.5352-1.5625 9.6602-2.7773z" fill="#512ad4"/>
 <path d="m67.715 92.062c-1.1289 1.3398-2.3242 2.6406-3.5938 3.8867-8.1328 7.9883-18.609 13.266-29.805 15.074 0-0.011719-0.003906-0.027344-0.003906-0.035157-1.3164-8.8281-0.44922-17.492 2.1953-25.434-0.41406-0.20313-0.82422-0.41406-1.2344-0.625-1.9258-1.0039-3.7969-2.1055-5.5977-3.293-3.418 9.4609-4.6055 19.871-3.0195 30.496 0.19141 1.2969 0.44141 2.6484 0.73438 4.0117l0.72266 3.3672 3.4297-0.32812c14.27-1.3633 27.766-7.6523 38.008-17.707 3.3828-3.3242 6.3281-6.9609 8.832-10.836-3.5039 0.76562-7.0703 1.25-10.668 1.4219z" fill="#512ad4"/>
 <path d="m79.473 53.551c-3.1055-2.4648-6.4531-4.6406-10.031-6.5039-5.4648-2.8477-11.242-4.8555-17.242-6.0039-0.042969 0.13281-0.085938 0.26953-0.125 0.40625-0.097657 0.32422-0.19141 0.64844-0.28125 0.97656-0.085938 0.30078-0.16406 0.60547-0.24219 0.91016-0.078125 0.29687-0.15625 0.59375-0.22656 0.89062-0.089844 0.37109-0.17188 0.74219-0.25391 1.1133-0.050781 0.24219-0.10937 0.47656-0.15625 0.71875-0.125 0.61719-0.24609 1.2422-0.34766 1.8672-0.039062 0.22656-0.070312 0.45312-0.10547 0.67969 5.3633 1 10.527 2.7734 15.406 5.3125 4.9375 2.5742 9.3906 5.8398 13.266 9.6797 0.27344-2.125 0.41797-4.2773 0.4375-6.4531 0.011719-1.207-0.03125-2.4023-0.097656-3.5938z" fill="#512ad4"/>
 <path d="m49.492 65.789c-2.3008 2.4453-4.3711 5.0977-6.1836 7.918 2.6992 9.7461 7.7344 18.711 14.695 26.129 1.8906-1.418 3.6953-2.957 5.3945-4.6211 0.15625-0.15625 0.30469-0.30859 0.45703-0.46484-7.582-7.9922-12.59-18.082-14.363-28.961z" fill="#512ad4"/>
 <path d="m101.7 116.34c3.1172-13.992 1.3047-28.773-5.0938-41.621-2.0898-4.2031-4.6172-8.1016-7.5117-11.664-0.35156 3.5859-1.0156 7.1172-1.9648 10.566 0.91016 1.4727 1.7656 2.9805 2.5469 4.5508 5.082 10.203 6.8633 21.793 5.125 33.004-0.011719-0.003907-0.023437-0.003907-0.035156-0.003907-5.7422-0.96484-11.246-2.8008-16.355-5.4648h-0.003906c-2.5352-1.3203-4.9297-2.8203-7.1758-4.4688-0.31641 0.32422-0.62891 0.64844-0.95312 0.96875-1.5586 1.5312-3.1953 2.9609-4.8945 4.3164 2.9258 2.2617 6.0742 4.293 9.4453 6.0547 0 0.003907 0.003906 0.003907 0.003906 0.003907 5.832 3.0391 12.109 5.1367 18.652 6.2305 1.293 0.21875 2.6523 0.39844 4.043 0.53906l3.4297 0.35156z" fill="#512ad4"/>
</svg>
